<?xml version="1.0" encoding="UTF-8" standalone="no"?>
<!-- Generator: Adobe Illustrator 16.0.0, SVG Export Plug-In . SVG Version: 6.00 Build 0)  -->

<svg
   xmlns:dc="http://purl.org/dc/elements/1.1/"
   xmlns:cc="http://creativecommons.org/ns#"
   xmlns:rdf="http://www.w3.org/1999/02/22-rdf-syntax-ns#"
   xmlns:svg="http://www.w3.org/2000/svg"
   xmlns="http://www.w3.org/2000/svg"
   xmlns:xlink="http://www.w3.org/1999/xlink"
   xmlns:sodipodi="http://sodipodi.sourceforge.net/DTD/sodipodi-0.dtd"
   xmlns:inkscape="http://www.inkscape.org/namespaces/inkscape"
   version="1.1"
   id="Layer_1"
   x="0px"
   y="0px"
   width="1.6713958in"
   height="1.6713958in"
   viewBox="0 0 160.45401 160.454"
   enable-background="new 0 0 134.333 207.581"
   xml:space="preserve"
   sodipodi:docname="IITC_square.svg"
   inkscape:version="0.92.3 (2405546, 2018-03-11)"
   inkscape:export-filename="/home/modos189/projects/IITC-CE/ingress-intel-total-conversion/assets/IITC-logo_36.png"
   inkscape:export-xdpi="21.538883"
   inkscape:export-ydpi="21.538883"><metadata
   id="metadata70"><rdf:RDF><cc:Work
       rdf:about=""><dc:format>image/svg+xml</dc:format><dc:type
         rdf:resource="http://purl.org/dc/dcmitype/StillImage" /><dc:title /><cc:license
         rdf:resource="http://creativecommons.org/licenses/by/4.0/" /></cc:Work><cc:License
       rdf:about="http://creativecommons.org/licenses/by/4.0/"><cc:permits
         rdf:resource="http://creativecommons.org/ns#Reproduction" /><cc:permits
         rdf:resource="http://creativecommons.org/ns#Distribution" /><cc:requires
         rdf:resource="http://creativecommons.org/ns#Notice" /><cc:requires
         rdf:resource="http://creativecommons.org/ns#Attribution" /><cc:permits
         rdf:resource="http://creativecommons.org/ns#DerivativeWorks" /></cc:License></rdf:RDF></metadata><defs
   id="defs68"><linearGradient
     inkscape:collect="always"
     id="linearGradient886"><stop
       style="stop-color:#79419d;stop-opacity:1"
       offset="0"
       id="stop882" /><stop
       style="stop-color:#592d92;stop-opacity:1"
       offset="1"
       id="stop884" /></linearGradient><linearGradient
     inkscape:collect="always"
     xlink:href="#SVGID_7_"
     id="linearGradient1037"
     x1="7.0366549"
     y1="-1.4305115e-05"
     x2="7.0366549"
     y2="207.58078"
     gradientUnits="userSpaceOnUse"
     gradientTransform="matrix(1.1220984,0,0,0.7729713,-1.2500004e-5,1.3824097e-5)" /><filter
     inkscape:collect="always"
     style="color-interpolation-filters:sRGB"
     id="filter2024"
     x="-0.012928044"
     width="1.0258561"
     y="-0.011196272"
     height="1.0223925"><feGaussianBlur
       inkscape:collect="always"
       stdDeviation="0.67625008"
       id="feGaussianBlur2026" /></filter></defs><sodipodi:namedview
   pagecolor="#ffffff"
   bordercolor="#666666"
   borderopacity="1"
   objecttolerance="10"
   gridtolerance="10"
   guidetolerance="10"
   inkscape:pageopacity="0"
   inkscape:pageshadow="2"
   inkscape:window-width="1310"
   inkscape:window-height="739"
   id="namedview66"
   showgrid="false"
   units="in"
   inkscape:snap-bbox="true"
   inkscape:bbox-paths="true"
   inkscape:bbox-nodes="true"
   inkscape:snap-bbox-edge-midpoints="true"
   inkscape:snap-bbox-midpoints="true"
   inkscape:object-paths="true"
   inkscape:snap-intersection-paths="true"
   inkscape:snap-midpoints="true"
   inkscape:snap-smooth-nodes="true"
   inkscape:snap-center="true"
   inkscape:snap-object-midpoints="true"
   inkscape:snap-text-baseline="true"
   inkscape:snap-page="true"
   inkscape:snap-nodes="true"
   inkscape:object-nodes="true"
   fit-margin-top="0"
   fit-margin-left="0"
   fit-margin-right="0"
   fit-margin-bottom="0"
   inkscape:zoom="2.2738134"
   inkscape:cx="2.9660182"
   inkscape:cy="85.875753"
   inkscape:window-x="56"
   inkscape:window-y="0"
   inkscape:window-maximized="1"
   inkscape:current-layer="Layer_1" />
<rect
   style="opacity:1;fill:url(#linearGradient1037);fill-opacity:1;fill-rule:evenodd;stroke:none;stroke-width:13.35804081;stroke-linecap:butt;stroke-linejoin:miter;stroke-miterlimit:4;stroke-dasharray:none;stroke-dashoffset:0;stroke-opacity:1"
   id="rect880"
   width="160.45399"
   height="160.45399"
   x="0"
   y="0" /><polygon
   transform="translate(13.076657,-0.95921318)"
   points="124.959,114.585 124.959,51.93 98.581,67.16 98.581,105.146 119.944,117.481 "
   id="polygon28"
   style="fill:#191b28;fill-opacity:1;stroke:none;stroke-width:0.5;stroke-miterlimit:4;stroke-dasharray:none;stroke-opacity:1" /><polygon
   transform="translate(13.07663,-0.96018818)"
   points="13.66,45.377 9.374,47.852 9.374,111.538 35.752,96.307 35.752,58.133 "
   id="polygon21"
   style="fill:#191b28;fill-opacity:1;stroke:none;stroke-width:0.5;stroke-miterlimit:4;stroke-dasharray:none;stroke-opacity:1" /><path
   inkscape:connector-curvature="0"
   style="opacity:0.90499998;fill:#0b0b0b;fill-opacity:1;fill-rule:evenodd;stroke:none;stroke-width:1px;stroke-linecap:butt;stroke-linejoin:miter;stroke-opacity:1;filter:url(#filter2024)"
   d="m 80.210401,7.7475018 -62.75391,36.2617182 0.0137,72.48242 62.78125,36.21485 62.746089,-36.24024 V 43.997501 Z m 0.0332,5.7792962 17.66797,10.199219 -5.33985,3.083984 c -0.78,0.448 -1.25976,1.280688 -1.25976,2.179688 v 67.810549 c 0,0.898 0.47976,1.72873 1.25976,2.17773 l 14.048829,8.113282 v 24.67188 l -26.378909,15.22851 -16.61328,-9.59179 4.60938,-2.66211 c 0.778,-0.451 1.25976,-1.28164 1.25976,-2.18165 V 64.745548 c 0,-0.899 -0.48176,-1.730687 -1.25976,-2.179687 L 53.864691,54.267032 V 28.989689 c 0,-0.076 -0.009,-0.15061 -0.0156,-0.224609 z m 22.701169,13.107422 33.58984,19.390625 -28.65429,16.542969 c -0.778,0.45 -1.25781,1.280687 -1.25781,2.179687 V 101.27875 L 96.347121,95.347108 h -0.002 V 30.442814 Z m -54.115229,5.027344 v 19.699218 l -17.0586,-9.849609 z m -22.09375,12.755859 22.09375,12.755859 V 95.347108 L 22.450631,110.57758 V 46.892032 Z m 111.300769,6.552735 v 62.654292 l -5.01562,2.89649 -21.36329,-12.33399 V 66.200626 Z m -84.171869,9.109374 10.59766,6.121094 v 64.902344 l -5.86914,3.38867 -33.75,-19.48242 27.76172,-16.029292 c 0.778,-0.449 1.25976,-1.28069 1.25976,-2.17969 z m 57.792959,49.917968 16.32813,9.42774 -16.32813,9.42968 z"
   id="path851-7" /><path
   style="fill:#ffffff;fill-rule:evenodd;stroke:none;stroke-width:1px;stroke-linecap:butt;stroke-linejoin:miter;stroke-opacity:1"
   d="M 80.210396,7.7475048 17.45649,44.009223 17.47016,116.49165 80.251409,152.70649 142.9975,116.46626 V 43.997504 Z m 0.0332,5.7792962 17.667969,10.199219 -5.339844,3.083984 c -0.78,0.448 -1.259766,1.280688 -1.259766,2.179688 v 67.810546 c 0,0.898 0.479766,1.72874 1.259766,2.17774 l 14.048829,8.113282 v 24.67187 l -26.378907,15.22851 -16.613281,-9.59179 4.609374,-2.66211 c 0.778001,-0.45099 1.259766,-1.28164 1.259766,-2.18164 V 64.745551 c 0,-0.899 -0.481766,-1.730687 -1.259766,-2.179687 L 53.864693,54.267035 V 28.989692 c 0,-0.076 -0.0086,-0.15061 -0.01563,-0.22461 z m 22.701174,13.107422 33.58984,19.390625 -28.6543,16.542969 c -0.778,0.45 -1.25781,1.280687 -1.25781,2.179687 V 101.27876 L 96.347115,95.347118 h -0.002 V 30.442817 Z M 48.829536,31.661567 V 51.360785 L 31.770943,41.511176 Z m -22.09375,12.755859 22.09375,12.755859 V 95.347118 L 22.45063,110.57759 V 46.892035 Z m 111.300774,6.552735 v 62.654299 l -5.01562,2.89649 -21.36329,-12.33399 V 66.200629 Z m -84.171867,9.109374 10.597656,6.121094 v 64.902341 l -5.869141,3.38867 -33.75,-19.48241 27.761719,-16.029302 c 0.778,-0.449 1.259766,-1.28069 1.259766,-2.17969 z m 57.792957,49.917975 16.32813,9.42774 -16.32813,9.42967 z"
   id="path851"
   inkscape:connector-curvature="0" /><g
   id="g63"
   transform="translate(13.076702,-0.95973318)"
   style="stroke:none;stroke-width:0.5;stroke-miterlimit:4;stroke-dasharray:none;stroke-opacity:1">
	<g
   id="g51"
   style="stroke:none;stroke-width:0.5;stroke-miterlimit:4;stroke-dasharray:none;stroke-opacity:1">
		<radialGradient
   id="SVGID_1_"
   cx="65.654297"
   cy="81.301804"
   r="81.8284"
   gradientUnits="userSpaceOnUse">
			<stop
   offset="0"
   style="stop-color:#57A2D9"
   id="stop2" />
			<stop
   offset="1"
   style="stop-color:#004A8E"
   id="stop4" />
		</radialGradient>
		
		<radialGradient
   id="SVGID_2_"
   cx="65.649399"
   cy="81.299797"
   r="81.835297"
   gradientUnits="userSpaceOnUse"
   xlink:href="#linearGradient886">
			<stop
   offset="0"
   style="stop-color:#57A2D9"
   id="stop9" />
			<stop
   offset="1"
   style="stop-color:#004A8E"
   id="stop11" />
		</radialGradient>
		
		<radialGradient
   id="SVGID_3_"
   cx="65.648903"
   cy="81.300301"
   r="81.833199"
   gradientUnits="userSpaceOnUse">
			<stop
   offset="0"
   style="stop-color:#D9DADA"
   id="stop16" />
			<stop
   offset="1"
   style="stop-color:#ADADAD"
   id="stop18" />
		</radialGradient>
		
		<radialGradient
   id="SVGID_4_"
   cx="65.654297"
   cy="81.300301"
   r="81.830101"
   gradientUnits="userSpaceOnUse">
			<stop
   offset="0"
   style="stop-color:#D9DADA"
   id="stop23" />
			<stop
   offset="1"
   style="stop-color:#ADADAD"
   id="stop25" />
		</radialGradient>
		
		<radialGradient
   id="SVGID_5_"
   cx="65.649902"
   cy="81.2183"
   r="81.919899"
   gradientUnits="userSpaceOnUse">
			<stop
   offset="0"
   style="stop-color:#57A2D9"
   id="stop30" />
			<stop
   offset="1"
   style="stop-color:#004A8E"
   id="stop32" />
		</radialGradient>
		
		<radialGradient
   id="SVGID_6_"
   cx="65.648903"
   cy="81.3013"
   r="81.8339"
   gradientUnits="userSpaceOnUse">
			<stop
   offset="0"
   style="stop-color:#57A2D9"
   id="stop37" />
			<stop
   offset="1"
   style="stop-color:#004A8E"
   id="stop39" />
		</radialGradient>
		
		<radialGradient
   id="SVGID_7_"
   cx="65.649902"
   cy="81.299797"
   r="81.832703"
   gradientUnits="userSpaceOnUse">
			<stop
   offset="0"
   style="stop-color:#79419d;stop-opacity:1"
   id="stop44" />
			<stop
   offset="1"
   style="stop-color:#592d92;stop-opacity:1"
   id="stop46" />
		</radialGradient>
		
	</g>
	
</g>
</svg>